<?xml version="1.0" standalone="no"?><!DOCTYPE svg PUBLIC "-//W3C//DTD SVG 1.1//EN" "http://www.w3.org/Graphics/SVG/1.1/DTD/svg11.dtd"><svg t="1525246183622" class="icon" style="" viewBox="0 0 1024 1024" version="1.1" xmlns="http://www.w3.org/2000/svg" p-id="6192" xmlns:xlink="http://www.w3.org/1999/xlink" width="200" height="200"><defs><style type="text/css"></style></defs><path d="M872.362667 176.448c0 0-611.029333 1.322667-634.837333 0l-18.773333-80.042667L218.666667 96.426667 218.666667 96.128C218.069333 96.106667 217.493333 96 216.896 96L85.333333 96c-17.664 0-32 9.557333-32 21.333333s14.336 21.333333 32 21.333333l99.221333 0 108.650667 480.874667c-35.797333 12.586667-61.205333 43.221333-61.205333 79.125333 0 27.989333 15.637333 52.650667 39.402667 68.224-20.565333 15.594667-34.069333 40.042667-34.069333 67.776 0 47.061333 38.272 85.333333 85.333333 85.333333s85.333333-38.272 85.333333-85.333333c0-19.029333-6.485333-36.458667-17.045333-50.666667L715.733333 784c-10.581333 14.208-17.045333 31.637333-17.045333 50.666667 0 47.061333 38.272 85.333333 85.333333 85.333333s85.333333-38.272 85.333333-85.333333c0-23.722667-9.749333-45.162667-25.408-60.650667 2.176-3.328 3.733333-7.082667 3.733333-11.349333 0-11.669333-9.386667-21.077333-20.992-21.269333L826.688 741.333333 329.152 741.333333c-30.037333 0-54.485333-19.136-54.485333-42.666667s24.448-42.666667 54.485333-42.666667l469.056 0 105.792-435.093333C904 196.394667 896.853333 176.448 872.362667 176.448zM842.666667 331.562667 274.496 331.562667l-21.333333-114.666667L864 216.896 842.666667 331.562667z" p-id="6193"></path></svg>